<svg width="883" height="259" viewBox="0 0 883 259" fill="none" xmlns="http://www.w3.org/2000/svg">
<ellipse cx="144.1" cy="129.5" rx="89.2047" ry="81.7895" fill="#97ACCF"/>
<path d="M121.032 143.568C121.416 143.824 122.632 144.368 124.68 145.2C126.728 146.032 129.128 146.448 131.88 146.448C133.864 146.448 135.464 146.128 136.68 145.488C137.896 144.784 138.792 143.728 139.368 142.32C140.008 140.912 140.424 139.088 140.616 136.848C140.872 134.544 141 131.76 141 128.496V93.84H159.72V128.496C159.72 133.68 159.4 138.384 158.76 142.608C158.184 146.832 156.968 150.48 155.112 153.552C153.256 156.624 150.472 158.992 146.76 160.656C143.048 162.256 138.088 163.056 131.88 163.056C128.936 163.056 126.248 162.704 123.816 162C121.384 161.296 119.144 160.24 117.096 158.832L121.032 143.568Z" fill="white"/>
<path d="M275.7 129.5C275.7 192.895 218.07 246.5 144.1 246.5C70.1298 246.5 12.5 192.895 12.5 129.5C12.5 66.1052 70.1298 12.5 144.1 12.5C218.07 12.5 275.7 66.1052 275.7 129.5Z" stroke="#97ACCF" stroke-width="25"/>
<path d="M363.56 161.44C364.28 161.92 366.56 162.94 370.4 164.5C374.24 166.06 378.74 166.84 383.9 166.84C387.62 166.84 390.62 166.24 392.9 165.04C395.18 163.72 396.86 161.74 397.94 159.1C399.14 156.46 399.92 153.04 400.28 148.84C400.76 144.52 401 139.3 401 133.18V68.2H436.1V133.18C436.1 142.9 435.5 151.72 434.3 159.64C433.22 167.56 430.94 174.4 427.46 180.16C423.98 185.92 418.76 190.36 411.8 193.48C404.84 196.48 395.54 197.98 383.9 197.98C378.38 197.98 373.34 197.32 368.78 196C364.22 194.68 360.02 192.7 356.18 190.06L363.56 161.44ZM499.326 197.8C490.926 197.8 483.486 196.48 477.006 193.84C470.526 191.2 465.066 187.6 460.626 183.04C456.306 178.36 453.006 173.08 450.726 167.2C448.566 161.32 447.486 155.14 447.486 148.66C447.486 142.18 448.566 136 450.726 130.12C453.006 124.12 456.306 118.84 460.626 114.28C465.066 109.72 470.526 106.12 477.006 103.48C483.486 100.84 490.926 99.52 499.326 99.52C507.846 99.52 515.286 100.84 521.646 103.48C528.126 106.12 533.526 109.72 537.846 114.28C542.286 118.84 545.586 124.12 547.746 130.12C550.026 136 551.166 142.18 551.166 148.66C551.166 155.14 550.026 161.32 547.746 167.2C545.586 173.08 542.286 178.36 537.846 183.04C533.526 187.6 528.126 191.2 521.646 193.84C515.286 196.48 507.846 197.8 499.326 197.8ZM482.586 148.66C482.586 152.86 483.306 156.52 484.746 159.64C486.186 162.64 488.166 164.98 490.686 166.66C493.206 168.22 496.086 169 499.326 169C502.566 169 505.446 168.22 507.966 166.66C510.486 164.98 512.466 162.64 513.906 159.64C515.346 156.52 516.066 152.86 516.066 148.66C516.066 144.46 515.346 140.86 513.906 137.86C512.466 134.74 510.486 132.4 507.966 130.84C505.446 129.16 502.566 128.32 499.326 128.32C496.086 128.32 493.206 129.16 490.686 130.84C488.166 132.4 486.186 134.74 484.746 137.86C483.306 140.86 482.586 144.46 482.586 148.66ZM715.913 196H681.713V142.72C681.713 138.04 680.753 134.68 678.833 132.64C677.033 130.48 674.813 129.4 672.173 129.4C669.533 129.4 666.653 130.66 663.533 133.18C660.413 135.7 658.133 138.94 656.693 142.9V196H622.493V142.72C622.493 138.04 621.533 134.68 619.613 132.64C617.813 130.48 615.593 129.4 612.953 129.4C610.313 129.4 607.433 130.66 604.313 133.18C601.193 135.7 598.913 138.94 597.473 142.9V196H563.273V101.32H594.053V115.36C597.413 110.2 602.033 106.3 607.913 103.66C613.793 100.9 620.753 99.52 628.793 99.52C636.593 99.52 642.473 101.2 646.433 104.56C650.393 107.92 653.033 111.7 654.353 115.9C657.713 110.74 662.333 106.72 668.213 103.84C674.093 100.96 680.693 99.52 688.013 99.52C694.253 99.52 699.233 100.66 702.953 102.94C706.673 105.22 709.433 108.16 711.233 111.76C713.153 115.36 714.413 119.14 715.013 123.1C715.613 126.94 715.913 130.48 715.913 133.72V196ZM727.33 167.38C727.33 161.02 729.07 155.44 732.55 150.64C736.03 145.72 740.83 141.88 746.95 139.12C753.19 136.36 760.27 134.98 768.19 134.98C771.91 134.98 775.39 135.28 778.63 135.88C781.99 136.48 784.87 137.38 787.27 138.58V135.7C787.27 131.26 785.95 127.96 783.31 125.8C780.79 123.64 776.65 122.56 770.89 122.56C765.61 122.56 760.63 123.46 755.95 125.26C751.39 126.94 746.59 129.46 741.55 132.82L731.65 111.58C738.01 107.5 744.67 104.5 751.63 102.58C758.71 100.54 766.27 99.52 774.31 99.52C789.31 99.52 800.89 102.94 809.05 109.78C817.33 116.5 821.47 126.52 821.47 139.84V158.2C821.47 161.44 821.95 163.72 822.91 165.04C823.87 166.24 825.55 166.96 827.95 167.2V196C825.19 196.6 822.55 197.02 820.03 197.26C817.63 197.62 815.47 197.8 813.55 197.8C807.43 197.8 802.75 196.72 799.51 194.56C796.39 192.28 794.35 188.98 793.39 184.66L792.67 181.24C788.47 186.64 783.61 190.78 778.09 193.66C772.57 196.42 766.69 197.8 760.45 197.8C754.21 197.8 748.57 196.48 743.53 193.84C738.49 191.2 734.53 187.6 731.65 183.04C728.77 178.36 727.33 173.14 727.33 167.38ZM782.77 169.72C784.09 168.76 785.17 167.74 786.01 166.66C786.85 165.46 787.27 164.26 787.27 163.06V156.04C785.35 155.32 783.13 154.72 780.61 154.24C778.21 153.76 776.05 153.52 774.13 153.52C770.05 153.52 766.57 154.54 763.69 156.58C760.93 158.62 759.55 161.2 759.55 164.32C759.55 166 760.03 167.56 760.99 169C761.95 170.32 763.27 171.4 764.95 172.24C766.63 172.96 768.55 173.32 770.71 173.32C772.75 173.32 774.85 173.02 777.01 172.42C779.29 171.7 781.21 170.8 782.77 169.72Z" fill="#97ACCF"/>
</svg>
