<svg width="1015" height="400" viewBox="0 0 1015 400" fill="none" xmlns="http://www.w3.org/2000/svg">
<path d="M546.56 237.44C547.28 237.92 549.56 238.94 553.4 240.5C557.24 242.06 561.74 242.84 566.9 242.84C570.62 242.84 573.62 242.24 575.9 241.04C578.18 239.72 579.86 237.74 580.94 235.1C582.14 232.46 582.92 229.04 583.28 224.84C583.76 220.52 584 215.3 584 209.18V144.2H619.1V209.18C619.1 218.9 618.5 227.72 617.3 235.64C616.22 243.56 613.94 250.4 610.46 256.16C606.98 261.92 601.76 266.36 594.8 269.48C587.84 272.48 578.54 273.98 566.9 273.98C561.38 273.98 556.34 273.32 551.78 272C547.22 270.68 543.02 268.7 539.18 266.06L546.56 237.44ZM682.326 273.8C673.926 273.8 666.486 272.48 660.006 269.84C653.526 267.2 648.066 263.6 643.626 259.04C639.306 254.36 636.006 249.08 633.726 243.2C631.566 237.32 630.486 231.14 630.486 224.66C630.486 218.18 631.566 212 633.726 206.12C636.006 200.12 639.306 194.84 643.626 190.28C648.066 185.72 653.526 182.12 660.006 179.48C666.486 176.84 673.926 175.52 682.326 175.52C690.846 175.52 698.286 176.84 704.646 179.48C711.126 182.12 716.526 185.72 720.846 190.28C725.286 194.84 728.586 200.12 730.746 206.12C733.026 212 734.166 218.18 734.166 224.66C734.166 231.14 733.026 237.32 730.746 243.2C728.586 249.08 725.286 254.36 720.846 259.04C716.526 263.6 711.126 267.2 704.646 269.84C698.286 272.48 690.846 273.8 682.326 273.8ZM665.586 224.66C665.586 228.86 666.306 232.52 667.746 235.64C669.186 238.64 671.166 240.98 673.686 242.66C676.206 244.22 679.086 245 682.326 245C685.566 245 688.446 244.22 690.966 242.66C693.486 240.98 695.466 238.64 696.906 235.64C698.346 232.52 699.066 228.86 699.066 224.66C699.066 220.46 698.346 216.86 696.906 213.86C695.466 210.74 693.486 208.4 690.966 206.84C688.446 205.16 685.566 204.32 682.326 204.32C679.086 204.32 676.206 205.16 673.686 206.84C671.166 208.4 669.186 210.74 667.746 213.86C666.306 216.86 665.586 220.46 665.586 224.66ZM898.913 272H864.713V218.72C864.713 214.04 863.753 210.68 861.833 208.64C860.033 206.48 857.813 205.4 855.173 205.4C852.533 205.4 849.653 206.66 846.533 209.18C843.413 211.7 841.133 214.94 839.693 218.9V272H805.493V218.72C805.493 214.04 804.533 210.68 802.613 208.64C800.813 206.48 798.593 205.4 795.953 205.4C793.313 205.4 790.433 206.66 787.313 209.18C784.193 211.7 781.913 214.94 780.473 218.9V272H746.273V177.32H777.053V191.36C780.413 186.2 785.033 182.3 790.913 179.66C796.793 176.9 803.753 175.52 811.793 175.52C819.593 175.52 825.473 177.2 829.433 180.56C833.393 183.92 836.033 187.7 837.353 191.9C840.713 186.74 845.333 182.72 851.213 179.84C857.093 176.96 863.693 175.52 871.013 175.52C877.253 175.52 882.233 176.66 885.953 178.94C889.673 181.22 892.433 184.16 894.233 187.76C896.153 191.36 897.413 195.14 898.013 199.1C898.613 202.94 898.913 206.48 898.913 209.72V272ZM910.33 243.38C910.33 237.02 912.07 231.44 915.55 226.64C919.03 221.72 923.83 217.88 929.95 215.12C936.19 212.36 943.27 210.98 951.19 210.98C954.91 210.98 958.39 211.28 961.63 211.88C964.99 212.48 967.87 213.38 970.27 214.58V211.7C970.27 207.26 968.95 203.96 966.31 201.8C963.79 199.64 959.65 198.56 953.89 198.56C948.61 198.56 943.63 199.46 938.95 201.26C934.39 202.94 929.59 205.46 924.55 208.82L914.65 187.58C921.01 183.5 927.67 180.5 934.63 178.58C941.71 176.54 949.27 175.52 957.31 175.52C972.31 175.52 983.89 178.94 992.05 185.78C1000.33 192.5 1004.47 202.52 1004.47 215.84V234.2C1004.47 237.44 1004.95 239.72 1005.91 241.04C1006.87 242.24 1008.55 242.96 1010.95 243.2V272C1008.19 272.6 1005.55 273.02 1003.03 273.26C1000.63 273.62 998.47 273.8 996.55 273.8C990.43 273.8 985.75 272.72 982.51 270.56C979.39 268.28 977.35 264.98 976.39 260.66L975.67 257.24C971.47 262.64 966.61 266.78 961.09 269.66C955.57 272.42 949.69 273.8 943.45 273.8C937.21 273.8 931.57 272.48 926.53 269.84C921.49 267.2 917.53 263.6 914.65 259.04C911.77 254.36 910.33 249.14 910.33 243.38ZM965.77 245.72C967.09 244.76 968.17 243.74 969.01 242.66C969.85 241.46 970.27 240.26 970.27 239.06V232.04C968.35 231.32 966.13 230.72 963.61 230.24C961.21 229.76 959.05 229.52 957.13 229.52C953.05 229.52 949.57 230.54 946.69 232.58C943.93 234.62 942.55 237.2 942.55 240.32C942.55 242 943.03 243.56 943.99 245C944.95 246.32 946.27 247.4 947.95 248.24C949.63 248.96 951.55 249.32 953.71 249.32C955.75 249.32 957.85 249.02 960.01 248.42C962.29 247.7 964.21 246.8 965.77 245.72Z" fill="#40A2FC"/>
<ellipse cx="208.5" cy="200" rx="122.915" ry="114.286" fill="#40A2FC"/>
<path d="M208.5 380C311.618 380 397 300.374 397 200C397 99.6259 311.618 20 208.5 20C105.382 20 20 99.6259 20 200C20 300.374 105.382 380 208.5 380Z" stroke="#40A2FC" stroke-width="40"/>
<path d="M171.56 228.44C172.28 228.92 174.56 229.94 178.4 231.5C182.24 233.06 186.74 233.84 191.9 233.84C195.62 233.84 198.62 233.24 200.9 232.04C203.18 230.72 204.86 228.74 205.94 226.1C207.14 223.46 207.92 220.04 208.28 215.84C208.76 211.52 209 206.3 209 200.18V135.2H244.1V200.18C244.1 209.9 243.5 218.72 242.3 226.64C241.22 234.56 238.94 241.4 235.46 247.16C231.98 252.92 226.76 257.36 219.8 260.48C212.84 263.48 203.54 264.98 191.9 264.98C186.38 264.98 181.34 264.32 176.78 263C172.22 261.68 168.02 259.7 164.18 257.06L171.56 228.44Z" fill="white"/>
</svg>
