<svg width="811" height="236" viewBox="0 0 811 236" fill="none" xmlns="http://www.w3.org/2000/svg">
<path d="M342.56 146.44C343.28 146.92 345.56 147.94 349.4 149.5C353.24 151.06 357.74 151.84 362.9 151.84C366.62 151.84 369.62 151.24 371.9 150.04C374.18 148.72 375.86 146.74 376.94 144.1C378.14 141.46 378.92 138.04 379.28 133.84C379.76 129.52 380 124.3 380 118.18V53.2H415.1V118.18C415.1 127.9 414.5 136.72 413.3 144.64C412.22 152.56 409.94 159.4 406.46 165.16C402.98 170.92 397.76 175.36 390.8 178.48C383.84 181.48 374.54 182.98 362.9 182.98C357.38 182.98 352.34 182.32 347.78 181C343.22 179.68 339.02 177.7 335.18 175.06L342.56 146.44ZM478.326 182.8C469.926 182.8 462.486 181.48 456.006 178.84C449.526 176.2 444.066 172.6 439.626 168.04C435.306 163.36 432.006 158.08 429.726 152.2C427.566 146.32 426.486 140.14 426.486 133.66C426.486 127.18 427.566 121 429.726 115.12C432.006 109.12 435.306 103.84 439.626 99.28C444.066 94.72 449.526 91.12 456.006 88.48C462.486 85.84 469.926 84.52 478.326 84.52C486.846 84.52 494.286 85.84 500.646 88.48C507.126 91.12 512.526 94.72 516.846 99.28C521.286 103.84 524.586 109.12 526.746 115.12C529.026 121 530.166 127.18 530.166 133.66C530.166 140.14 529.026 146.32 526.746 152.2C524.586 158.08 521.286 163.36 516.846 168.04C512.526 172.6 507.126 176.2 500.646 178.84C494.286 181.48 486.846 182.8 478.326 182.8ZM461.586 133.66C461.586 137.86 462.306 141.52 463.746 144.64C465.186 147.64 467.166 149.98 469.686 151.66C472.206 153.22 475.086 154 478.326 154C481.566 154 484.446 153.22 486.966 151.66C489.486 149.98 491.466 147.64 492.906 144.64C494.346 141.52 495.066 137.86 495.066 133.66C495.066 129.46 494.346 125.86 492.906 122.86C491.466 119.74 489.486 117.4 486.966 115.84C484.446 114.16 481.566 113.32 478.326 113.32C475.086 113.32 472.206 114.16 469.686 115.84C467.166 117.4 465.186 119.74 463.746 122.86C462.306 125.86 461.586 129.46 461.586 133.66ZM694.913 181H660.713V127.72C660.713 123.04 659.753 119.68 657.833 117.64C656.033 115.48 653.813 114.4 651.173 114.4C648.533 114.4 645.653 115.66 642.533 118.18C639.413 120.7 637.133 123.94 635.693 127.9V181H601.493V127.72C601.493 123.04 600.533 119.68 598.613 117.64C596.813 115.48 594.593 114.4 591.953 114.4C589.313 114.4 586.433 115.66 583.313 118.18C580.193 120.7 577.913 123.94 576.473 127.9V181H542.273V86.32H573.053V100.36C576.413 95.2 581.033 91.3 586.913 88.66C592.793 85.9 599.753 84.52 607.793 84.52C615.593 84.52 621.473 86.2 625.433 89.56C629.393 92.92 632.033 96.7 633.353 100.9C636.713 95.74 641.333 91.72 647.213 88.84C653.093 85.96 659.693 84.52 667.013 84.52C673.253 84.52 678.233 85.66 681.953 87.94C685.673 90.22 688.433 93.16 690.233 96.76C692.153 100.36 693.413 104.14 694.013 108.1C694.613 111.94 694.913 115.48 694.913 118.72V181ZM706.33 152.38C706.33 146.02 708.07 140.44 711.55 135.64C715.03 130.72 719.83 126.88 725.95 124.12C732.19 121.36 739.27 119.98 747.19 119.98C750.91 119.98 754.39 120.28 757.63 120.88C760.99 121.48 763.87 122.38 766.27 123.58V120.7C766.27 116.26 764.95 112.96 762.31 110.8C759.79 108.64 755.65 107.56 749.89 107.56C744.61 107.56 739.63 108.46 734.95 110.26C730.39 111.94 725.59 114.46 720.55 117.82L710.65 96.58C717.01 92.5 723.67 89.5 730.63 87.58C737.71 85.54 745.27 84.52 753.31 84.52C768.31 84.52 779.89 87.94 788.05 94.78C796.33 101.5 800.47 111.52 800.47 124.84V143.2C800.47 146.44 800.95 148.72 801.91 150.04C802.87 151.24 804.55 151.96 806.95 152.2V181C804.19 181.6 801.55 182.02 799.03 182.26C796.63 182.62 794.47 182.8 792.55 182.8C786.43 182.8 781.75 181.72 778.51 179.56C775.39 177.28 773.35 173.98 772.39 169.66L771.67 166.24C767.47 171.64 762.61 175.78 757.09 178.66C751.57 181.42 745.69 182.8 739.45 182.8C733.21 182.8 727.57 181.48 722.53 178.84C717.49 176.2 713.53 172.6 710.65 168.04C707.77 163.36 706.33 158.14 706.33 152.38ZM761.77 154.72C763.09 153.76 764.17 152.74 765.01 151.66C765.85 150.46 766.27 149.26 766.27 148.06V141.04C764.35 140.32 762.13 139.72 759.61 139.24C757.21 138.76 755.05 138.52 753.13 138.52C749.05 138.52 745.57 139.54 742.69 141.58C739.93 143.62 738.55 146.2 738.55 149.32C738.55 151 739.03 152.56 739.99 154C740.95 155.32 742.27 156.4 743.95 157.24C745.63 157.96 747.55 158.32 749.71 158.32C751.75 158.32 753.85 158.02 756.01 157.42C758.29 156.7 760.21 155.8 761.77 154.72Z" fill="#40A2FC"/>
<rect width="245" height="236" rx="20" fill="#40A2FC"/>
<path d="M87.56 147.44C88.28 147.92 90.56 148.94 94.4 150.5C98.24 152.06 102.74 152.84 107.9 152.84C111.62 152.84 114.62 152.24 116.9 151.04C119.18 149.72 120.86 147.74 121.94 145.1C123.14 142.46 123.92 139.04 124.28 134.84C124.76 130.52 125 125.3 125 119.18V54.2H160.1V119.18C160.1 128.9 159.5 137.72 158.3 145.64C157.22 153.56 154.94 160.4 151.46 166.16C147.98 171.92 142.76 176.36 135.8 179.48C128.84 182.48 119.54 183.98 107.9 183.98C102.38 183.98 97.34 183.32 92.78 182C88.22 180.68 84.02 178.7 80.18 176.06L87.56 147.44Z" fill="white"/>
</svg>
