<svg width="289" height="259" viewBox="0 0 289 259" fill="none" xmlns="http://www.w3.org/2000/svg">
<ellipse cx="144.1" cy="129.5" rx="89.2047" ry="81.7895" fill="#97ACCF"/>
<path d="M121.032 143.568C121.416 143.824 122.632 144.368 124.68 145.2C126.728 146.032 129.128 146.448 131.88 146.448C133.864 146.448 135.464 146.128 136.68 145.488C137.896 144.784 138.792 143.728 139.368 142.32C140.008 140.912 140.424 139.088 140.616 136.848C140.872 134.544 141 131.76 141 128.496V93.84H159.72V128.496C159.72 133.68 159.4 138.384 158.76 142.608C158.184 146.832 156.968 150.48 155.112 153.552C153.256 156.624 150.472 158.992 146.76 160.656C143.048 162.256 138.088 163.056 131.88 163.056C128.936 163.056 126.248 162.704 123.816 162C121.384 161.296 119.144 160.24 117.096 158.832L121.032 143.568Z" fill="white"/>
<path d="M275.7 129.5C275.7 192.895 218.07 246.5 144.1 246.5C70.1298 246.5 12.5 192.895 12.5 129.5C12.5 66.1052 70.1298 12.5 144.1 12.5C218.07 12.5 275.7 66.1052 275.7 129.5Z" stroke="#97ACCF" stroke-width="25"/>
</svg>
